<?xml version="1.0" encoding="UTF-8"?>
<svg id="Livello_2" data-name="Livello 2" xmlns="http://www.w3.org/2000/svg" viewBox="0 0 556.51 247.52">
  <defs>
    <style>
      .cls-1 {
        letter-spacing: .06em;
      }

      .cls-2, .cls-3, .cls-4, .cls-5 {
        fill: #c197c5;
      }

      .cls-3 {
        letter-spacing: 0em;
      }

      .cls-3, .cls-4, .cls-5 {
        font-family: Nunito-Medium, Nunito;
        font-size: 100.96px;
        font-variation-settings: 'wght' 500;
        font-weight: 500;
      }

      .cls-6 {
        font-family: NirmalaUI-Semilight, 'Nirmala UI';
        font-size: 23.41px;
      }

      .cls-6, .cls-7, .cls-8, .cls-9, .cls-10, .cls-11, .cls-12 {
        fill: #7bc6b8;
      }

      .cls-6, .cls-8, .cls-9, .cls-10, .cls-11, .cls-12 {
        font-weight: 300;
      }

      .cls-13 {
        letter-spacing: .06em;
      }

      .cls-14 {
        letter-spacing: .07em;
      }

      .cls-15 {
        letter-spacing: .06em;
      }

      .cls-16 {
        letter-spacing: .06em;
      }

      .cls-17 {
        letter-spacing: .06em;
      }

      .cls-18 {
        letter-spacing: .06em;
      }

      .cls-19 {
        letter-spacing: .07em;
      }

      .cls-8 {
        letter-spacing: -.03em;
      }

      .cls-8, .cls-9, .cls-10, .cls-11, .cls-12 {
        font-family: Nunito-Light, Nunito;
        font-size: 117.04px;
        font-variation-settings: 'wght' 300;
      }

      .cls-4 {
        letter-spacing: 0em;
      }

      .cls-20 {
        letter-spacing: .06em;
      }

      .cls-21 {
        letter-spacing: .06em;
      }

      .cls-9 {
        letter-spacing: -.04em;
      }

      .cls-22 {
        letter-spacing: .06em;
      }

      .cls-23 {
        letter-spacing: .07em;
      }

      .cls-24 {
        letter-spacing: .06em;
      }

      .cls-25 {
        letter-spacing: .07em;
      }

      .cls-26 {
        letter-spacing: .05em;
      }

      .cls-27 {
        letter-spacing: .06em;
      }

      .cls-10 {
        letter-spacing: -.04em;
      }

      .cls-28 {
        letter-spacing: .06em;
      }

      .cls-29 {
        letter-spacing: .06em;
      }

      .cls-30 {
        letter-spacing: .08em;
      }

      .cls-31 {
        letter-spacing: .06em;
      }

      .cls-32 {
        letter-spacing: .07em;
      }

      .cls-11 {
        letter-spacing: -.01em;
      }

      .cls-5 {
        letter-spacing: -.1em;
      }

      .cls-33 {
        letter-spacing: .06em;
      }

      .cls-12 {
        letter-spacing: -.01em;
      }
    </style>
  </defs>
  <g id="Logo_definitivo" data-name="Logo definitivo">
    <g>
      <g>
        <path class="cls-2" d="M124.11.02c-.27-.18-1.36.76-2.92,2.13-7.17,6.31-8.36,7.59-9.16,8.48-.19.21-2.87,3.43-2.87,3.43-.72.92-1.78,2.33-2.96,4.1-3.99,5.94-6.17,11.16-9.13,19.01-2.9,7.69-8.18,23.01-11.21,28.59-1.52,2.8-3.19,5.03-3.19,5.03-1.88,2.32-2.21,2.44-2.9,3.53-2.9,4.64.42,11.07,1.05,12.22,1.74,3.19,2.94,2.98,5.68,7.04,0,0,2.57,3.8,3.98,8.15,2.98,9.19-2.65,19.12-7.14,27.03-3.36,5.93-4.02,5.4-9.88,14.94-1.32,2.14-5.62,9.12-8.34,14.78-3.07,6.37-6.86,16.75-7.41,31.48-4.78,4.52-10.94,11.33-15.96,20.64-9.48,17.58-10.88,36.63-9.62,36.92.17.04.48-.23,1.11-1.49.12-1.03.33-2.58.69-4.44.74-3.85,4.68-22.52,24.85-42.46,2.92-2.89,8.67-7.48,20.18-16.66,14.76-11.78,20.26-15.31,21.55-22.09.66-3.48.58-9.69-6.32-18.14-2.93,3.46-5.86,6.91-8.79,10.37.68.53,1.17,1.12,1.51,1.73,5.31,9.49-22.54,30.52-26.63,33.57.61-3.29,1.73-8.28,3.84-14.14,5.43-15.03,11.85-20.36,21.35-34.9,11.03-16.88,21.97-33.63,15.72-48.1-2.04-4.73-5.39-7.98-7.69-9.87-.18-.1-.33-.21-.47-.33-2.2-1.94.1-6.81.47-7.57,1.09-2.82,2.76-7.41,4.36-13.18,2.86-10.32,1.8-12.13,5.87-26.38,1.12-3.94,3.05-9.82,6.38-16.85,1.64-.82,3.52-1.93,5.46-3.43,3.06-2.36,5.13-4.83,6.49-6.76-1.27.77-2.54,1.54-3.81,2.31,1.61-2.07,3.23-4.14,4.84-6.2.63-1.05,1.3-2.28,1.03-2.47Z"/>
        <path class="cls-2" d="M0,135.55c2.15-3.91,4.64-6.61,6.59-8.39,1.19-1.08,2.27-2.03,3.57-2.96,1.98-1.42,3.63-2.27,4.25-2.59,4.09-2.13,7.92-4.64,11.94-6.87,15.46-8.57,34.82-27.96,38.95-36.57.72-1.5,2.67-5.56.68-8.41-.38-.54-.8-.91-1.05-1.1h-5.47c-.47,2.77-3.05,4.79-5.92,4.81-3.24.03-5.49-2.48-6-4.83-.5-2.27.55-4.66,2.71-6.16-.37-.59-.84-1.44-1.2-2.48-.1-.28-.61-1.82-.59-3.69.04-4.05,2.47-6.94,2.47-6.94.67-.8,4.33-4.92,9.27-4.23,2.28.32,3.86,1.53,4.63,2.22-.03,1.87-.05,3.75-.08,5.62-.03.12-.06.24-.09.37-.39,1.44-1.28,3.32-3.36,5.25,1.35-.85,3.1-2.26,4.09-4.43.14-.3.25-.59.34-.88.13-1.68.27-3.37.4-5.05,2.35.02,4.69.04,7.04.06v2.47c4.17,2.46,4.91,4.24,4.77,5.43-.21,1.86-2.59,2.53-4.36,5.68-.96,1.72-1.28,3.33-1.39,4.43.13,2.71.03,6.59-1.06,11.08-2.76,11.27-9.93,18.51-13.74,22.27-8.13,8.01-17.01,12.3-33.64,20.37-3.35,1.63-6.17,2.9-8.1,3.76-.87,1.49-2.21,3.51-4.26,5.62-1.23,1.27-3.63,3.53-4.12,3.21-.21-.14-.13-.78,1.1-2.96-2.79,1.97-5.58,3.95-8.37,5.92Z"/>
        <g>
          <ellipse class="cls-7" cx="74.14" cy="93.28" rx="1.92" ry="1.73"/>
          <ellipse class="cls-7" cx="77.23" cy="101.81" rx="2.68" ry="2.41"/>
          <ellipse class="cls-7" cx="77.23" cy="112.65" rx="3.29" ry="2.96"/>
          <ellipse class="cls-7" cx="72.76" cy="124.09" rx="3.35" ry="3.01"/>
          <ellipse class="cls-7" cx="66.04" cy="133.67" rx="2.88" ry="2.59"/>
          <ellipse class="cls-7" cx="60.17" cy="143.02" rx="2.11" ry="1.9"/>
          <ellipse class="cls-7" cx="56.95" cy="151.33" rx="1.67" ry="1.5"/>
          <ellipse class="cls-7" cx="55.15" cy="159.34" rx="1.47" ry="1.32"/>
        </g>
      </g>
      <text transform="translate(145.13 164.55)"><tspan><tspan class="cls-11" x="0" y="0">F</tspan><tspan class="cls-9" x="61.86" y="0">i</tspan><tspan class="cls-10" x="82.62" y="0">s</tspan><tspan class="cls-8" x="133.52" y="0">i</tspan><tspan class="cls-12" x="155.5" y="0">o</tspan><tspan class="cls-4" x="217.83" y="0">E</tspan><tspan class="cls-5" x="277.45" y="0">V</tspan><tspan class="cls-3" x="337.37" y="0">A</tspan></tspan></text>
      <text class="cls-6" transform="translate(154.75 200.27)"><tspan class="cls-26" x="0" y="0">C</tspan><tspan class="cls-32" x="15.68" y="0">e</tspan><tspan class="cls-33" x="29.28" y="0">n</tspan><tspan class="cls-24" x="43.56" y="0">t</tspan><tspan class="cls-16" x="52.51" y="0">r</tspan><tspan class="cls-23" x="61.91" y="0">o </tspan><tspan class="cls-18" x="85.2" y="0">d</tspan><tspan class="cls-23" x="100.05" y="0">i </tspan><tspan class="cls-28" x="115.16" y="0">F</tspan><tspan class="cls-22" x="127.77" y="0">is</tspan><tspan class="cls-13" x="145.12" y="0">i</tspan><tspan class="cls-21" x="151.84" y="0">o</tspan><tspan class="cls-17" x="166.62" y="0">t</tspan><tspan class="cls-32" x="175.47" y="0">e</tspan><tspan class="cls-27" x="189.08" y="0">r</tspan><tspan class="cls-15" x="198.49" y="0">a</tspan><tspan class="cls-1" x="211.72" y="0">p</tspan><tspan class="cls-20" x="226.65" y="0">i</tspan><tspan class="cls-23" x="233.19" y="0">a e </tspan><tspan class="cls-25" x="276.7" y="0">O</tspan><tspan class="cls-30" x="295.97" y="0">s</tspan><tspan class="cls-17" x="307.27" y="0">t</tspan><tspan class="cls-14" x="316.12" y="0">e</tspan><tspan class="cls-19" x="329.83" y="0">o</tspan><tspan class="cls-31" x="344.78" y="0">p</tspan><tspan class="cls-16" x="359.7" y="0">a</tspan><tspan class="cls-29" x="372.89" y="0">t</tspan><tspan class="cls-20" x="381.84" y="0">i</tspan><tspan class="cls-23" x="388.38" y="0">a</tspan></text>
    </g>
  </g>
</svg>